# xmcd CD database file
#
# Track frame offsets:
#	150
#	11006
#	21233
#	33288
#	42496
#	51575
#	61647
#	73204
#	85941
#	96076
#	106805
#	118932
#	128464
#	139140
#	149855
#	162436
#	174782
#	186834
#	197315
#	209144
#	220738
#	232924
#	243726
#	254774
#
# Disc length: 3530 seconds
#
# Revision: 1
# Processed by: cddbd v1.5.2PL0 Copyright (c) Steve Scherf et al.
# Submitted via: CDex 1.51
#
DISCID=670dc818
DTITLE=Various Artist - Doo-Bop-Jivers - Volume 08
DYEAR=1997
DGENRE=Boogie Woogie
TTITLE0=CFive Keys_Your Teeth And Your Tongue (Alt)
TTITLE1=The Hearts_ Angel Baby
TTITLE2=The Federals_You Gotta Love Me Baby
TTITLE3=The Lincolns_Pleasin' You Pleases Me
TTITLE4=The Teenage Rebels_ Annabelle Lee
TTITLE5=Granahan Gerry_Dance Girl Dance
TTITLE6=The Willows_Don't Pull, Don't Push, Don't Shove
TTITLE7=The Night Riders_Women And Cadillacs
TTITLE8=Jack and Jills_Red Dog
TTITLE9=The Cavaliers_Dance Dance Dance
TTITLE10=Four Sounds, The - Tall Lanky Papa
TTITLE11=The Chorals_Rock And Roll Baby
TTITLE12=The Camelots_ Pocahontas
TTITLE13=The Clovers_The Gossip Wheel
TTITLE14=The Rays_Love Another Girl
TTITLE15=The KING BROTHER_Hypnotize
TTITLE16=The Parakeets_Silly And Sappy
TTITLE17=Don and Juan_True Love Never Loves Smooth
TTITLE18=The Travelers,_People Call Me Little Boy
TTITLE19=The Five Royals_I Ain't Gettin' Caught
TTITLE20=The Larks_Who Walks In When I Walk Out
TTITLE21=VJokers,_Where Did My Baby Go
TTITLE22=The Stereos_The Big Knock
TTITLE23=The Persians_ Gee What A Girl
EXTD=YEAR: 1997
EXTT0=
EXTT1=
EXTT2=
EXTT3=
EXTT4=
EXTT5=
EXTT6=
EXTT7=
EXTT8=
EXTT9=
EXTT10=
EXTT11=
EXTT12=
EXTT13=
EXTT14=
EXTT15=
EXTT16=
EXTT17=
EXTT18=
EXTT19=
EXTT20=
EXTT21=
EXTT22=
EXTT23=
PLAYORDER=
